<svg xmlns="http://www.w3.org/2000/svg" viewBox="0 0 402 166"><defs><style>.a{fill:#7d8082;}.b{fill:#414244;}.c{fill:#ce4027;}</style></defs><title>Artboard 1</title><path class="a" d="M11.58,144.74v21H6.72v-21H.23V140.3H18.07v4.44Z"/><path class="a" d="M42.62,165.79V140.3H59v4.44H47.47v6h9.81v4.44H47.47v6.19H59v4.44Z"/><path class="a" d="M101.8,158a10.81,10.81,0,0,1-1.11,3.43,8.69,8.69,0,0,1-2,2.53A8.18,8.18,0,0,1,96,165.46a9.91,9.91,0,0,1-3.31.54A9,9,0,0,1,86,163.21a7.41,7.41,0,0,1-2-3.83,35.53,35.53,0,0,1-.42-6.34,35.48,35.48,0,0,1,.42-6.33,7.37,7.37,0,0,1,2-3.83,9.65,9.65,0,0,1,12.76-.72,9.4,9.4,0,0,1,3.09,6H96.88a5.22,5.22,0,0,0-1.4-2.63,4.39,4.39,0,0,0-5.9.34,4.94,4.94,0,0,0-.63.91,4.32,4.32,0,0,0-.36,1.26,19.24,19.24,0,0,0-.18,2c0,.8,0,1.82,0,3.06s0,2.27,0,3.06a19.48,19.48,0,0,0,.18,2,4.42,4.42,0,0,0,.36,1.26,4.94,4.94,0,0,0,.63.91,3.79,3.79,0,0,0,3.11,1.32,3.84,3.84,0,0,0,2.79-1,5.26,5.26,0,0,0,1.4-2.63Z"/><path class="a" d="M139.87,165.79V155.12h-8.42v10.67H126.6V140.3h4.85v10.38h8.42V140.3h4.85v25.49Z"/><path class="a" d="M185.82,165.79,176,150.15v15.64h-4.85V140.3h4.33l9.85,15.61V140.3h4.85v25.49Z"/><path class="a" d="M234.08,153c0,1.1,0,2.13,0,3.08a17.28,17.28,0,0,1-.26,2.69,10,10,0,0,1-.73,2.34,7.52,7.52,0,0,1-1.45,2.06,9.34,9.34,0,0,1-13.45,0,7.47,7.47,0,0,1-1.44-2.06,9.1,9.1,0,0,1-.72-2.34,20.17,20.17,0,0,1-.25-2.69c0-1,0-2,0-3.08s0-2.12,0-3.07a20.17,20.17,0,0,1,.25-2.69,9.1,9.1,0,0,1,.72-2.34,7.33,7.33,0,0,1,1.44-2.06,9.29,9.29,0,0,1,13.45,0,7.37,7.37,0,0,1,1.45,2.06,10,10,0,0,1,.73,2.34A17.28,17.28,0,0,1,234,150C234.07,150.92,234.08,152,234.08,153Zm-4.86,0c0-1.21,0-2.22-.05-3a15.46,15.46,0,0,0-.19-2,4.34,4.34,0,0,0-.39-1.27,4,4,0,0,0-.59-.87,4,4,0,0,0-1.31-1,4.11,4.11,0,0,0-1.8-.37,4.21,4.21,0,0,0-1.81.37,3.83,3.83,0,0,0-1.33,1,4,4,0,0,0-.58.87,5.14,5.14,0,0,0-.36,1.27,13.85,13.85,0,0,0-.19,2c0,.8-.06,1.81-.06,3s0,2.23.06,3a13.55,13.55,0,0,0,.19,2,5.24,5.24,0,0,0,.36,1.28,4,4,0,0,0,.58.87,3.83,3.83,0,0,0,1.33,1,4.21,4.21,0,0,0,1.81.37,4.11,4.11,0,0,0,1.8-.37,4,4,0,0,0,1.31-1,4,4,0,0,0,.59-.87,4.41,4.41,0,0,0,.39-1.28,15.11,15.11,0,0,0,.19-2C229.21,155.27,229.22,154.26,229.22,153Z"/><path class="a" d="M259.64,165.79V140.3h4.85v21h11.28v4.44Z"/><path class="a" d="M316.94,153c0,1.1,0,2.13,0,3.08a17.28,17.28,0,0,1-.26,2.69,9.52,9.52,0,0,1-.73,2.34,7.52,7.52,0,0,1-1.45,2.06,9.31,9.31,0,0,1-2.95,2.07,9.21,9.21,0,0,1-3.76.72,9.32,9.32,0,0,1-3.77-.72,9.13,9.13,0,0,1-3-2.07,7.31,7.31,0,0,1-1.45-2.06,9.1,9.1,0,0,1-.72-2.34,18.68,18.68,0,0,1-.24-2.69c0-1,0-2,0-3.08s0-2.12,0-3.07a18.68,18.68,0,0,1,.24-2.69,9.1,9.1,0,0,1,.72-2.34,7.17,7.17,0,0,1,1.45-2.06,9.32,9.32,0,0,1,3-2.08,9.49,9.49,0,0,1,3.77-.71,9.37,9.37,0,0,1,3.76.71,9.51,9.51,0,0,1,2.95,2.08,7.37,7.37,0,0,1,1.45,2.06,9.52,9.52,0,0,1,.73,2.34,17.28,17.28,0,0,1,.26,2.69C316.93,150.92,316.94,152,316.94,153Zm-4.86,0c0-1.21,0-2.22-.05-3a15.46,15.46,0,0,0-.19-2,4.69,4.69,0,0,0-.38-1.27,4.08,4.08,0,0,0-.6-.87,3.85,3.85,0,0,0-1.31-1,4.11,4.11,0,0,0-1.8-.37,4.21,4.21,0,0,0-1.81.37,3.83,3.83,0,0,0-1.33,1,3.63,3.63,0,0,0-.57.87,4.71,4.71,0,0,0-.37,1.27,15.46,15.46,0,0,0-.19,2c0,.8-.06,1.81-.06,3s0,2.23.06,3a15.11,15.11,0,0,0,.19,2,4.8,4.8,0,0,0,.37,1.28,3.63,3.63,0,0,0,.57.87,3.83,3.83,0,0,0,1.33,1,4.21,4.21,0,0,0,1.81.37,4.11,4.11,0,0,0,1.8-.37,3.85,3.85,0,0,0,1.31-1,4.08,4.08,0,0,0,.6-.87,4.77,4.77,0,0,0,.38-1.28,15.11,15.11,0,0,0,.19-2C312.07,155.27,312.08,154.26,312.08,153Z"/><path class="a" d="M360.2,155.33a16.25,16.25,0,0,1-.54,4.59,8.07,8.07,0,0,1-1.83,3.18,9.38,9.38,0,0,1-3.2,2.2,10,10,0,0,1-3.82.7,9,9,0,0,1-6.71-2.79,7.41,7.41,0,0,1-2-3.83,35.53,35.53,0,0,1-.42-6.34,35.48,35.48,0,0,1,.42-6.33,7.37,7.37,0,0,1,2-3.83,9,9,0,0,1,6.71-2.79,10.09,10.09,0,0,1,3.75.64,8.57,8.57,0,0,1,2.8,1.77,8.85,8.85,0,0,1,1.86,2.6,11.07,11.07,0,0,1,.95,3.15h-4.93q-.9-3.72-4.45-3.72a3.81,3.81,0,0,0-3.09,1.36,4.11,4.11,0,0,0-.58.89,4.75,4.75,0,0,0-.36,1.24,13.09,13.09,0,0,0-.19,1.95c0,.78-.06,1.81-.06,3.07s0,2.27.06,3.06a17.25,17.25,0,0,0,.17,2,4.42,4.42,0,0,0,.36,1.26,5.3,5.3,0,0,0,.6.91,3.76,3.76,0,0,0,3.09,1.32,4.36,4.36,0,0,0,3.44-1.43,5.07,5.07,0,0,0,1.12-3.4v-1h-4.58v-4.15h9.43Z"/><path class="a" d="M394.53,155.33v10.46h-4.86V155.33l-7.47-15h5.27l4.67,10.27,4.59-10.27H402Z"/><path class="b" d="M111.4,114.23h-2.21a6.89,6.89,0,0,1-6.9-6.86V49a6.88,6.88,0,0,1,6.9-6.85h2.21A6.88,6.88,0,0,1,118.3,49v58.36A6.89,6.89,0,0,1,111.4,114.23Z"/><path class="b" d="M83.43,114.23H81.24a6.87,6.87,0,0,1-6.85-6.86v-3.84A45,45,0,1,1,90.28,69.19v38.18A6.86,6.86,0,0,1,83.43,114.23ZM45.26,40.05A29.14,29.14,0,1,0,74.39,69.19,29.18,29.18,0,0,0,45.26,40.05Z"/><path class="b" d="M329.31,114.16h-2.2a6.88,6.88,0,0,1-6.91-6.84V36.47a12.23,12.23,0,0,1,12.28-12.15h22.41c25,0,45.36,20.15,45.36,44.92v38.05a6.87,6.87,0,0,1-6.9,6.83h-2.2a7,7,0,0,1-7-6.83V69.24a29.17,29.17,0,0,0-29.3-29.07H337.78a1.5,1.5,0,0,0-1.51,1.56v65.59A7,7,0,0,1,329.31,114.16Z"/><path class="b" d="M175.69,114.16A45.46,45.46,0,0,1,143.58,101a44.79,44.79,0,0,1,0-63.64,45.69,45.69,0,0,1,62.91-1.2h0l1.26,1.2a6.81,6.81,0,0,1,0,9.68l-1.84,1.69a6.87,6.87,0,0,1-4.88,2,6.39,6.39,0,0,1-3.08-.91h0l-1.54-1.23a29.56,29.56,0,0,0-41.51,0,29,29,0,0,0,0,41.18,29.72,29.72,0,0,0,36.41,4,6.48,6.48,0,0,0,2.34-2.36,7.16,7.16,0,0,0,.69-3.09V73a6.88,6.88,0,0,1,6.9-6.85h2.2A6.89,6.89,0,0,1,210.35,73V90.27c0,.83.11,5.83-2.39,9.62a16.42,16.42,0,0,1-4.2,4.59A45.42,45.42,0,0,1,175.69,114.16Z"/><path class="b" d="M265.38,114.16h0a45,45,0,1,1,45-45c0,.08-.23,7-2.15,12h0l-69.27,0a22,22,0,0,0,5.78,8.49,29,29,0,0,0,20.6,8.53h0a28.93,28.93,0,0,0,20.54-8.46l.07-.06a6.84,6.84,0,0,1,9.69,0l1.55,1.54a6.86,6.86,0,0,1,0,9.69A44.77,44.77,0,0,1,265.38,114.16Zm-29-47.9h58.05a29.17,29.17,0,0,0-58.05,0Z"/><path class="c" d="M111.54,37.16h-2.2a6.92,6.92,0,0,1-6.9-6.92V7.08a6.92,6.92,0,0,1,6.9-6.92h2.2a6.91,6.91,0,0,1,6.9,6.92V30.24A6.92,6.92,0,0,1,111.54,37.16Z"/></svg>