<?xml version="1.0" encoding="UTF-8"?>
<svg id="Layer_1" data-name="Layer 1" xmlns="http://www.w3.org/2000/svg" viewBox="0 0 402 166">
  <defs>
    <style>
      .cls-1 {
        fill: #fff;
      }

      .cls-2 {
        fill: #7d8082;
      }

      .cls-3 {
        fill: #ce4027;
      }
    </style>
  </defs>
  <g>
    <path class="cls-2" d="M11.58,144.74v21.04H6.72v-21.04H.23v-4.44H18.07v4.44h-6.49Z"/>
    <path class="cls-2" d="M42.62,165.79v-25.48h16.38v4.44h-11.52v5.98h9.81v4.44h-9.81v6.19h11.52v4.44h-16.38Z"/>
    <path class="cls-2" d="M101.8,157.95c-.21,1.29-.58,2.43-1.12,3.44-.54,1-1.2,1.84-1.99,2.52-.79,.68-1.7,1.2-2.72,1.56-1.02,.36-2.13,.54-3.32,.54-2.65,0-4.89-.93-6.7-2.79-1.07-1.1-1.75-2.37-2.02-3.83-.28-1.43-.42-3.54-.42-6.33s.14-4.9,.42-6.33c.28-1.46,.95-2.73,2.02-3.83,1.82-1.86,4.05-2.79,6.7-2.79,2.4,0,4.42,.69,6.06,2.08,1.64,1.38,2.67,3.38,3.09,5.98h-4.92c-.26-1.1-.72-1.97-1.4-2.63-.68-.66-1.61-.98-2.79-.98-1.35,0-2.39,.44-3.11,1.32-.26,.29-.47,.59-.63,.91-.16,.32-.29,.74-.37,1.25-.08,.51-.14,1.17-.17,1.97-.03,.8-.05,1.82-.05,3.06s.02,2.26,.05,3.06c.03,.8,.09,1.46,.17,1.97,.08,.51,.2,.93,.37,1.25s.37,.63,.63,.91c.72,.88,1.76,1.32,3.11,1.32,1.19,0,2.12-.33,2.79-.98,.68-.66,1.14-1.53,1.4-2.63h4.92Z"/>
    <path class="cls-2" d="M139.87,165.79v-10.67h-8.42v10.67h-4.85v-25.48h4.85v10.38h8.42v-10.38h4.85v25.48h-4.85Z"/>
    <path class="cls-2" d="M185.82,165.79l-9.85-15.64v15.64h-4.85v-25.48h4.33l9.85,15.6v-15.6h4.85v25.48h-4.33Z"/>
    <path class="cls-2" d="M234.08,153.04c0,1.1-.01,2.12-.04,3.08-.02,.95-.11,1.85-.26,2.68-.15,.84-.4,1.62-.73,2.34-.34,.73-.82,1.41-1.45,2.06-.88,.91-1.87,1.6-2.95,2.08-1.08,.48-2.33,.72-3.75,.72s-2.68-.24-3.77-.72c-1.09-.48-2.08-1.17-2.97-2.08-.63-.64-1.11-1.33-1.45-2.06-.34-.73-.58-1.51-.72-2.34-.14-.83-.22-1.73-.24-2.68-.02-.95-.03-1.98-.03-3.08s.01-2.12,.03-3.08,.1-1.85,.24-2.68c.14-.83,.38-1.62,.72-2.34,.34-.73,.82-1.41,1.45-2.06,.88-.91,1.87-1.6,2.97-2.08,1.09-.48,2.35-.72,3.77-.72s2.67,.24,3.75,.72c1.08,.48,2.07,1.17,2.95,2.08,.63,.64,1.11,1.33,1.45,2.06,.34,.73,.58,1.51,.73,2.34,.15,.84,.24,1.73,.26,2.68s.04,1.98,.04,3.08Zm-4.85,0c0-1.22-.02-2.22-.05-3.02-.04-.8-.1-1.46-.19-1.99-.09-.52-.22-.95-.38-1.27-.16-.32-.36-.61-.59-.88-.35-.41-.79-.73-1.31-.98-.52-.25-1.12-.38-1.8-.38s-1.28,.13-1.82,.38c-.54,.25-.98,.58-1.33,.98-.23,.26-.42,.55-.58,.88-.15,.32-.27,.75-.37,1.27-.09,.53-.16,1.19-.19,1.99-.04,.8-.05,1.81-.05,3.02s.02,2.22,.05,3.02c.03,.8,.1,1.46,.19,1.99,.09,.53,.22,.95,.37,1.27,.15,.32,.34,.61,.58,.88,.35,.41,.79,.73,1.33,.98,.54,.25,1.14,.38,1.82,.38s1.27-.13,1.8-.38c.52-.25,.96-.58,1.31-.98,.23-.26,.43-.56,.59-.88,.16-.32,.29-.75,.38-1.27,.09-.52,.16-1.19,.19-1.99,.04-.8,.05-1.81,.05-3.02Z"/>
    <path class="cls-2" d="M259.64,165.79v-25.48h4.85v21.04h11.28v4.44h-16.13Z"/>
    <path class="cls-2" d="M316.94,153.04c0,1.1-.01,2.12-.04,3.08-.02,.95-.11,1.85-.26,2.68-.15,.84-.4,1.62-.73,2.34-.34,.73-.82,1.41-1.45,2.06-.88,.91-1.87,1.6-2.95,2.08-1.08,.48-2.33,.72-3.75,.72s-2.68-.24-3.77-.72c-1.09-.48-2.08-1.17-2.97-2.08-.63-.64-1.11-1.33-1.45-2.06-.34-.73-.58-1.51-.72-2.34-.14-.83-.22-1.73-.24-2.68-.02-.95-.03-1.98-.03-3.08s.01-2.12,.03-3.08,.1-1.85,.24-2.68c.14-.83,.38-1.62,.72-2.34,.34-.73,.82-1.41,1.45-2.06,.88-.91,1.87-1.6,2.97-2.08,1.09-.48,2.35-.72,3.77-.72s2.67,.24,3.75,.72c1.08,.48,2.07,1.17,2.95,2.08,.63,.64,1.11,1.33,1.45,2.06,.34,.73,.58,1.51,.73,2.34,.15,.84,.24,1.73,.26,2.68,.02,.95,.04,1.98,.04,3.08Zm-4.85,0c0-1.22-.02-2.22-.05-3.02-.04-.8-.1-1.46-.19-1.99-.09-.52-.22-.95-.38-1.27-.16-.32-.36-.61-.59-.88-.35-.41-.79-.73-1.31-.98-.52-.25-1.12-.38-1.8-.38s-1.28,.13-1.82,.38c-.54,.25-.98,.58-1.33,.98-.23,.26-.42,.55-.58,.88-.15,.32-.27,.75-.37,1.27-.09,.53-.16,1.19-.19,1.99-.04,.8-.05,1.81-.05,3.02s.02,2.22,.05,3.02c.03,.8,.1,1.46,.19,1.99,.09,.53,.22,.95,.37,1.27,.15,.32,.34,.61,.58,.88,.35,.41,.79,.73,1.33,.98,.54,.25,1.14,.38,1.82,.38s1.27-.13,1.8-.38c.52-.25,.96-.58,1.31-.98,.23-.26,.43-.56,.59-.88,.16-.32,.29-.75,.38-1.27,.09-.52,.16-1.19,.19-1.99,.04-.8,.05-1.81,.05-3.02Z"/>
    <path class="cls-2" d="M360.2,155.33c0,1.86-.18,3.39-.54,4.58-.36,1.19-.97,2.25-1.83,3.19-.98,1-2.04,1.74-3.2,2.2-1.15,.47-2.43,.7-3.82,.7-2.65,0-4.89-.93-6.7-2.79-1.07-1.1-1.75-2.37-2.03-3.83-.28-1.43-.42-3.54-.42-6.33s.14-4.9,.42-6.33c.28-1.46,.95-2.73,2.03-3.83,1.82-1.86,4.05-2.79,6.7-2.79,1.42,0,2.67,.21,3.75,.64,1.08,.43,2.01,1.02,2.79,1.77,.78,.75,1.4,1.62,1.87,2.59,.47,.98,.78,2.03,.94,3.15h-4.92c-.6-2.48-2.09-3.72-4.45-3.72-1.3,0-2.33,.45-3.1,1.36-.23,.29-.42,.59-.57,.89-.15,.31-.27,.72-.36,1.24-.09,.51-.16,1.16-.19,1.95s-.05,1.81-.05,3.08,.02,2.26,.05,3.06c.04,.8,.09,1.46,.17,1.97,.08,.51,.2,.93,.36,1.25s.36,.63,.59,.91c.72,.88,1.75,1.32,3.1,1.32,1.44,0,2.59-.48,3.44-1.43,.74-.88,1.11-2.02,1.11-3.4v-.97h-4.57v-4.15h9.43v3.72Z"/>
    <path class="cls-2" d="M394.53,155.33v10.45h-4.85v-10.45l-7.47-15.03h5.27l4.66,10.27,4.59-10.27h5.27l-7.47,15.03Z"/>
  </g>
  <path class="cls-1" d="M111.4,114.23h-2.2c-3.81,0-6.9-3.08-6.9-6.86V49.01c0-3.78,3.1-6.86,6.9-6.86h2.2c3.81,0,6.9,3.08,6.9,6.86v58.36c0,3.78-3.1,6.86-6.9,6.86Z"/>
  <path class="cls-1" d="M83.43,114.23h-2.19c-3.78,0-6.85-3.08-6.85-6.85v-3.85c-8.09,6.86-18.4,10.7-29.14,10.7C20.43,114.23,.23,94.03,.23,69.19S20.43,24.16,45.26,24.16s45.03,20.2,45.03,45.04v38.18c0,3.78-3.07,6.85-6.85,6.85ZM45.26,40.05c-16.07,0-29.14,13.07-29.14,29.14s13.07,29.14,29.14,29.14,29.14-13.07,29.14-29.14-13.07-29.14-29.14-29.14Z"/>
  <path class="cls-1" d="M329.31,114.16h-2.2c-3.81,0-6.9-3.07-6.9-6.84V36.47c0-6.7,5.51-12.15,12.27-12.15h22.41c25.01,0,45.36,20.15,45.36,44.92v38.05c0,3.77-3.1,6.84-6.9,6.84h-2.2c-3.81,0-6.9-3.07-6.95-6.84v-38.05c.05-16.03-13.12-29.07-29.3-29.07h-17.11c-.85,0-1.57,.71-1.51,1.55V107.32c-.06,3.77-3.16,6.84-6.97,6.84Z"/>
  <path class="cls-1" d="M175.69,114.16c-11.67,0-23.3-4.45-32.11-13.19-17.69-17.55-17.69-46.1,0-63.65,17.28-17.14,45.14-17.54,62.91-1.19h0l1.26,1.19c2.69,2.67,2.69,7.02,0,9.69l-1.84,1.69c-1.3,1.29-3.03,2-4.88,2-1.15,0-2.1-.39-3.08-.91h0l-1.54-1.23c-11.45-11.35-30.07-11.35-41.52,0-11.44,11.35-11.44,29.83,0,41.18,9.62,9.54,24.93,11.24,36.41,4.05,1.23-.77,2.02-1.73,2.34-2.36,.74-1.47,.69-3.07,.69-3.09v-.13s0-15.17,0-15.17c0-3.78,3.1-6.85,6.91-6.85h2.2c3.81,0,6.91,3.07,6.91,6.85v17.24c.03,.83,.11,5.83-2.39,9.62-1.62,2.46-2.76,3.45-4.2,4.58-8.27,6.49-18.19,9.68-28.07,9.68Z"/>
  <path class="cls-1" d="M265.38,114.16h0c-12.03,0-23.34-4.68-31.84-13.18-17.56-17.55-17.56-46.1,0-63.64,17.56-17.55,46.13-17.55,63.69,0,8.51,8.5,13.19,19.8,13.19,31.82,0,.08-.24,7.05-2.16,12.05h0l-69.26,.04c1.37,3.85,3.59,6.32,5.77,8.5,5.5,5.5,12.82,8.53,20.6,8.53h0c7.76,0,15.05-3,20.54-8.46l.07-.07c1.29-1.29,3.01-2,4.85-2s3.56,.71,4.85,2l1.55,1.54c2.67,2.67,2.67,7.02,0,9.69-8.51,8.5-19.82,13.18-31.85,13.18Zm-29.02-47.9h58.05c-1.34-14.57-13.85-26.22-29.02-26.22s-27.68,11.65-29.02,26.22Z"/>
  <path class="cls-3" d="M111.54,37.16h-2.2c-3.8,0-6.9-3.1-6.9-6.92V7.08c0-3.82,3.1-6.92,6.9-6.92h2.2c3.8,0,6.9,3.1,6.9,6.92V30.24c0,3.82-3.1,6.92-6.9,6.92Z"/>
</svg>